<svg id="kity_svg_6" xmlns="http://www.w3.org/2000/svg" xmlns:xlink="http://www.w3.org/1999/xlink" version="1.1" width="1103" height="1884" style="background: rgb(251, 251, 251); visibility: visible;" viewBox="0 0 1103 1884"><defs id="kity_defs_7"><linearGradient id="kity_linearGradient_17" x1="0" y1="0" x2="0" y2="1"><stop id="kity_stop_18" offset="0" stop-color="rgb(255, 255, 255)"></stop><stop id="kity_stop_19" offset="1" stop-color="rgb(204, 204, 204)"></stop></linearGradient><marker id="kity_marker_2" orient="auto" refX="6" refY="0" viewBox="-7 -7 14 14" markerWidth="7" markerHeight="7" markerUnits="userSpaceOnUse"><path id="kity_path_3" fill="rgb(115, 161, 191)" stroke="none" d="M6,0A6,6,0,1,1,-6,0A6,6,0,1,1,6,0"></path></marker></defs><g id="kity_g_8"><g id="minder1" text-rendering="geometricPrecision"><g id="minder_connect_group1"><path id="kity_path_31" fill="none" stroke="rgb(115, 161, 191)" stroke-width="1" d="M584.5000190585852,1405.5000349730253A158,1096,0,0,1,742.5000190585852,309.5000349730253"></path><path id="kity_path_39" fill="none" stroke="rgb(115, 161, 191)" stroke-width="1" d="M584.5000190585852,1405.5000349730253A258,504,0,0,0,326.50001905858517,901.5000349730253"></path><path id="kity_path_43" fill="none" stroke="rgb(115, 161, 191)" stroke-width="1" d="M584.5000190585852,1405.5000349730253A165,902,0,0,1,749.5000190585852,503.5000349730253"></path><path id="kity_path_45" fill="none" stroke="rgb(115, 161, 191)" stroke-width="1" d="M819.5000190585852,503.5000349730253C834.5000190585852,503.5000349730253,834.5000190585852,494.5000349730253,849.5000190585852,494.5000349730253L925.5000190585852,494.5000349730253"></path><path id="kity_path_47" fill="none" stroke="rgb(115, 161, 191)" stroke-width="1" d="M819.5000190585852,503.5000349730253C834.5000190585852,503.5000349730253,834.5000190585852,546.5000349730253,849.5000190585852,546.5000349730253L904.5000190585852,546.5000349730253"></path><path id="kity_path_49" fill="none" stroke="rgb(115, 161, 191)" stroke-width="1" d="M584.5000190585852,1405.5000349730253A219,766,0,0,1,803.5000190585852,639.5000349730253"></path><path id="kity_path_51" fill="none" stroke="rgb(115, 161, 191)" stroke-width="1" d="M930.5000190585852,639.5000349730253C945.5000190585852,639.5000349730253,945.5000190585852,601.5000349730253,960.5000190585852,601.5000349730253L1015.5000190585852,601.5000349730253"></path><path id="kity_path_53" fill="none" stroke="rgb(115, 161, 191)" stroke-width="1" d="M930.5000190585852,639.5000349730253C945.5000190585852,639.5000349730253,945.5000190585852,653.5000349730253,960.5000190585852,653.5000349730253L1015.5000190585852,653.5000349730253"></path><path id="kity_path_55" fill="none" stroke="rgb(115, 161, 191)" stroke-width="1" d="M930.5000190585852,639.5000349730253C945.5000190585852,639.5000349730253,945.5000190585852,705.5000349730253,960.5000190585852,705.5000349730253L1083.5000190585852,705.5000349730253"></path><path id="kity_path_57" fill="none" stroke="rgb(115, 161, 191)" stroke-width="1" d="M584.5000190585852,1405.5000349730253A212,613,0,0,1,796.5000190585852,792.5000349730253"></path><path id="kity_path_63" fill="none" stroke="rgb(115, 161, 191)" stroke-width="1" d="M584.5000190585852,1405.5000349730253A11,1218,0,0,0,573.5000190585852,187.50003497302532"></path><path id="kity_path_83" fill="none" stroke="rgb(115, 161, 191)" stroke-width="1" d="M584.5000190585852,1405.5000349730253A185,762,0,0,0,399.50001905858517,643.5000349730253"></path><path id="kity_path_89" fill="none" stroke="rgb(115, 161, 191)" stroke-width="1" d="M584.5000190585852,1405.5000349730253A281,614,0,0,0,303.50001905858517,791.5000349730253"></path><path id="kity_path_95" fill="none" stroke="rgb(115, 161, 191)" stroke-width="1" d="M584.5000190585852,1405.5000349730253A277,128,0,0,1,307.50001905858517,1533.5000349730253"></path><path id="kity_path_103" fill="none" stroke="rgb(115, 161, 191)" stroke-width="1" d="M584.5000190585852,1405.5000349730253A275,290,0,0,1,309.50001905858517,1695.5000349730253"></path><path id="kity_path_113" fill="none" stroke="rgb(115, 161, 191)" stroke-width="1" d="M584.5000190585852,1405.5000349730253A89,910,0,0,0,495.50001905858517,495.5000349730253"></path><path id="kity_path_127" fill="none" stroke="rgb(115, 161, 191)" stroke-width="1" d="M584.5000190585852,1405.5000349730253A284,533,0,0,1,868.5000190585852,872.5000349730253"></path><path id="kity_path_133" fill="none" stroke="rgb(115, 161, 191)" stroke-width="1" d="M584.5000190585852,1405.5000349730253A214,394,0,0,1,798.5000190585852,1011.5000349730253"></path><path id="kity_path_135" fill="none" stroke="rgb(115, 161, 191)" stroke-width="1" d="M925.5000190585852,1011.5000349730253C940.5000190585852,1011.5000349730253,940.5000190585852,999.5000349730253,955.5000190585852,999.5000349730253L1010.5000190585852,999.5000349730253"></path><path id="kity_path_137" fill="none" stroke="rgb(115, 161, 191)" stroke-width="1" d="M925.5000190585852,1011.5000349730253C940.5000190585852,1011.5000349730253,940.5000190585852,1051.5000349730253,955.5000190585852,1051.5000349730253L1010.5000190585852,1051.5000349730253"></path><path id="kity_path_139" fill="none" stroke="rgb(115, 161, 191)" stroke-width="1" d="M584.5000190585852,1405.5000349730253A253,425,0,0,0,331.50001905858517,980.5000349730253"></path><path id="kity_path_141" fill="none" stroke="rgb(115, 161, 191)" stroke-width="1" d="M218.50001905858517,980.5000349730253C203.50001905858517,980.5000349730253,203.50001905858517,968.5000349730253,188.50001905858517,968.5000349730253L133.50001905858517,968.5000349730253"></path><path id="kity_path_143" fill="none" stroke="rgb(115, 161, 191)" stroke-width="1" d="M218.50001905858517,980.5000349730253C203.50001905858517,980.5000349730253,203.50001905858517,1020.5000349730253,188.50001905858517,1020.5000349730253L133.50001905858517,1020.5000349730253"></path><path id="kity_path_145" fill="none" stroke="rgb(115, 161, 191)" stroke-width="1" d="M584.5000190585852,1405.5000349730253A235,273,0,0,0,349.50001905858517,1132.5000349730253"></path><path id="kity_path_147" fill="none" stroke="rgb(115, 161, 191)" stroke-width="1" d="M208.50001905858517,1132.5000349730253C193.50001905858517,1132.5000349730253,193.50001905858517,1120.5000349730253,178.50001905858517,1120.5000349730253L123.50001905858517,1120.5000349730253"></path><path id="kity_path_149" fill="none" stroke="rgb(115, 161, 191)" stroke-width="1" d="M208.50001905858517,1132.5000349730253C193.50001905858517,1132.5000349730253,193.50001905858517,1172.5000349730253,178.50001905858517,1172.5000349730253L123.50001905858517,1172.5000349730253"></path><path id="kity_path_151" fill="none" stroke="rgb(115, 161, 191)" stroke-width="1" d="M584.5000190585852,1405.5000349730253A226,147,0,0,0,358.50001905858517,1258.5000349730253"></path><path id="kity_path_153" fill="none" stroke="rgb(115, 161, 191)" stroke-width="1" d="M217.50001905858517,1258.5000349730253C202.50001905858517,1258.5000349730253,202.50001905858517,1249.5000349730253,187.50001905858517,1249.5000349730253L82.50001905858517,1249.5000349730253"></path><path id="kity_path_155" fill="none" stroke="rgb(115, 161, 191)" stroke-width="1" d="M217.50001905858517,1258.5000349730253C202.50001905858517,1258.5000349730253,202.50001905858517,1301.5000349730253,187.50001905858517,1301.5000349730253L132.50001905858517,1301.5000349730253"></path><path id="kity_path_157" fill="none" stroke="rgb(115, 161, 191)" stroke-width="1" d="M584.5000190585852,1405.5000349730253A128,98,0,0,1,712.5000190585852,1307.5000349730253"></path><path id="kity_path_159" fill="none" stroke="rgb(115, 161, 191)" stroke-width="1" d="M810.5000190585852,1307.5000349730253C825.5000190585852,1307.5000349730253,825.5000190585852,1295.5000349730253,840.5000190585852,1295.5000349730253L895.5000190585852,1295.5000349730253"></path><path id="kity_path_161" fill="none" stroke="rgb(115, 161, 191)" stroke-width="1" d="M810.5000190585852,1307.5000349730253C825.5000190585852,1307.5000349730253,825.5000190585852,1347.5000349730253,840.5000190585852,1347.5000349730253L895.5000190585852,1347.5000349730253"></path><path id="kity_path_571" fill="none" stroke="rgb(115, 161, 191)" stroke-width="1" d="M584.5000190585852,1405.5000349730253A127,167,0,0,0,711.5000190585852,1572.5000349730253"></path><path id="kity_path_583" fill="none" stroke="rgb(115, 161, 191)" stroke-width="1" d="M584.5000190585852,1405.5000349730253A123,380,0,0,0,707.5000190585852,1785.5000349730253"></path><path id="kity_path_634" fill="none" stroke="rgb(115, 161, 191)" stroke-width="1" d="M967.5000190585852,872.5000349730253C982.5000190585852,872.5000349730253,982.5000190585852,860.5000349730253,997.5000190585852,860.5000349730253L1052.5000190585852,860.5000349730253"></path><path id="kity_path_635" fill="none" stroke="rgb(115, 161, 191)" stroke-width="1" d="M967.5000190585852,872.5000349730253C982.5000190585852,872.5000349730253,982.5000190585852,912.5000349730253,997.5000190585852,912.5000349730253L1052.5000190585852,912.5000349730253"></path><path id="kity_path_636" fill="none" stroke="rgb(115, 161, 191)" stroke-width="1" d="M895.5000190585852,792.5000349730253C910.5000190585852,792.5000349730253,910.5000190585852,780.5000349730253,925.5000190585852,780.5000349730253L980.5000190585852,780.5000349730253"></path><path id="kity_path_637" fill="none" stroke="rgb(115, 161, 191)" stroke-width="1" d="M895.5000190585852,792.5000349730253C910.5000190585852,792.5000349730253,910.5000190585852,832.5000349730253,925.5000190585852,832.5000349730253L980.5000190585852,832.5000349730253"></path><path id="kity_path_640" fill="none" stroke="rgb(115, 161, 191)" stroke-width="1" d="M840.5000190585852,309.5000349730253C851.5000190585852,309.5000349730253,851.5000190585852,255.50003497302532,862.5000190585852,255.50003497302532L917.5000190585852,255.50003497302532"></path><path id="kity_path_641" fill="none" stroke="rgb(115, 161, 191)" stroke-width="1" d="M840.5000190585852,309.5000349730253C845.0000190585852,309.5000349730253,845.0000190585852,318.5000349730253,849.5000190585852,318.5000349730253L904.5000190585852,318.5000349730253"></path><path id="kity_path_642" fill="none" stroke="rgb(115, 161, 191)" stroke-width="1" d="M840.5000190585852,309.5000349730253C855.5000190585852,309.5000349730253,855.5000190585852,375.5000349730253,870.5000190585852,375.5000349730253L993.5000190585852,375.5000349730253"></path><path id="kity_path_671" fill="none" stroke="rgb(115, 161, 191)" stroke-width="1" d="M172.50001905858517,901.5000349730253C157.50001905858517,901.5000349730253,157.50001905858517,915.5000349730253,142.50001905858517,915.5000349730253L20.500019058585167,915.5000349730253"></path><path id="kity_path_685" fill="none" stroke="rgb(115, 161, 191)" stroke-width="1" d="M584.5000190585852,1405.5000349730253A130,91,0,0,0,714.5000190585852,1496.5000349730253"></path><path id="kity_path_695" fill="none" stroke="rgb(115, 161, 191)" stroke-width="1" d="M176.50001905858517,791.5000349730253C161.50001905858517,791.5000349730253,161.50001905858517,779.5000349730253,146.50001905858517,779.5000349730253L91.50001905858517,779.5000349730253"></path><path id="kity_path_696" fill="none" stroke="rgb(115, 161, 191)" stroke-width="1" d="M176.50001905858517,791.5000349730253C161.50001905858517,791.5000349730253,161.50001905858517,831.5000349730253,146.50001905858517,831.5000349730253L91.50001905858517,831.5000349730253"></path><path id="kity_path_704" fill="none" stroke="rgb(115, 161, 191)" stroke-width="1" d="M352.50001905858517,71.50003497302532C337.50001905858517,71.50003497302532,337.50001905858517,45.50003497302532,322.50001905858517,45.50003497302532L267.50001905858517,45.50003497302532"></path><path id="kity_path_705" fill="none" stroke="rgb(115, 161, 191)" stroke-width="1" d="M352.50001905858517,71.50003497302532C337.50001905858517,71.50003497302532,337.50001905858517,97.50003497302532,322.50001905858517,97.50003497302532L267.50001905858517,97.50003497302532"></path><path id="kity_path_706" fill="none" stroke="rgb(115, 161, 191)" stroke-width="1" d="M461.50001905858517,187.50003497302532C446.50001905858517,187.50003497302532,446.50001905858517,71.50003497302532,431.50001905858517,71.50003497302532L352.50001905858517,71.50003497302532"></path><path id="kity_path_707" fill="none" stroke="rgb(115, 161, 191)" stroke-width="1" d="M461.50001905858517,187.50003497302532C446.50001905858517,187.50003497302532,446.50001905858517,149.50003497302532,431.50001905858517,149.50003497302532L376.50001905858517,149.50003497302532"></path><path id="kity_path_708" fill="none" stroke="rgb(115, 161, 191)" stroke-width="1" d="M461.50001905858517,187.50003497302532C446.50001905858517,187.50003497302532,446.50001905858517,201.50003497302532,431.50001905858517,201.50003497302532L376.50001905858517,201.50003497302532"></path><path id="kity_path_709" fill="none" stroke="rgb(115, 161, 191)" stroke-width="1" d="M461.50001905858517,187.50003497302532C446.50001905858517,187.50003497302532,446.50001905858517,253.50003497302532,431.50001905858517,253.50003497302532L308.50001905858517,253.50003497302532"></path><path id="kity_path_710" fill="none" stroke="rgb(115, 161, 191)" stroke-width="1" d="M352.50001905858517,331.5000349730253C337.50001905858517,331.5000349730253,337.50001905858517,305.5000349730253,322.50001905858517,305.5000349730253L267.50001905858517,305.5000349730253"></path><path id="kity_path_711" fill="none" stroke="rgb(115, 161, 191)" stroke-width="1" d="M352.50001905858517,331.5000349730253C337.50001905858517,331.5000349730253,337.50001905858517,357.5000349730253,322.50001905858517,357.5000349730253L267.50001905858517,357.5000349730253"></path><path id="kity_path_712" fill="none" stroke="rgb(115, 161, 191)" stroke-width="1" d="M461.50001905858517,187.50003497302532C446.50001905858517,187.50003497302532,446.50001905858517,331.5000349730253,431.50001905858517,331.5000349730253L352.50001905858517,331.5000349730253"></path><path id="kity_path_713" fill="none" stroke="rgb(115, 161, 191)" stroke-width="1" d="M273.50001905858517,643.5000349730253C258.50001905858517,643.5000349730253,258.50001905858517,592.5000349730253,243.50001905858517,592.5000349730253L188.50001905858517,592.5000349730253"></path><path id="kity_path_714" fill="none" stroke="rgb(115, 161, 191)" stroke-width="1" d="M273.50001905858517,643.5000349730253C258.50001905858517,643.5000349730253,258.50001905858517,644.5000349730253,243.50001905858517,644.5000349730253L188.50001905858517,644.5000349730253"></path><path id="kity_path_715" fill="none" stroke="rgb(115, 161, 191)" stroke-width="1" d="M164.50001905858517,722.5000349730253C149.50001905858517,722.5000349730253,149.50001905858517,696.5000349730253,134.50001905858517,696.5000349730253L79.50001905858517,696.5000349730253"></path><path id="kity_path_716" fill="none" stroke="rgb(115, 161, 191)" stroke-width="1" d="M164.50001905858517,722.5000349730253C149.50001905858517,722.5000349730253,149.50001905858517,748.5000349730253,134.50001905858517,748.5000349730253L79.50001905858517,748.5000349730253"></path><path id="kity_path_717" fill="none" stroke="rgb(115, 161, 191)" stroke-width="1" d="M273.50001905858517,643.5000349730253C258.50001905858517,643.5000349730253,258.50001905858517,722.5000349730253,243.50001905858517,722.5000349730253L164.50001905858517,722.5000349730253"></path><path id="kity_path_718" fill="none" stroke="rgb(115, 161, 191)" stroke-width="1" d="M341.50001905858517,495.5000349730253C326.50001905858517,495.5000349730253,326.50001905858517,457.5000349730253,311.50001905858517,457.5000349730253L256.50001905858517,457.5000349730253"></path><path id="kity_path_719" fill="none" stroke="rgb(115, 161, 191)" stroke-width="1" d="M341.50001905858517,495.5000349730253C326.50001905858517,495.5000349730253,326.50001905858517,509.5000349730253,311.50001905858517,509.5000349730253L256.50001905858517,509.5000349730253"></path><path id="kity_path_720" fill="none" stroke="rgb(115, 161, 191)" stroke-width="1" d="M341.50001905858517,495.5000349730253C326.50001905858517,495.5000349730253,326.50001905858517,561.5000349730253,311.50001905858517,561.5000349730253L203.50001905858517,561.5000349730253"></path><path id="kity_path_721" fill="none" stroke="rgb(115, 161, 191)" stroke-width="1" d="M848.5000190585852,1785.5000349730253C863.5000190585852,1785.5000349730253,863.5000190585852,1760.5000349730253,878.5000190585852,1760.5000349730253L1006.5000190585852,1760.5000349730253"></path><path id="kity_path_722" fill="none" stroke="rgb(115, 161, 191)" stroke-width="1" d="M934.5000190585852,1838.5000349730253C949.5000190585852,1838.5000349730253,949.5000190585852,1812.5000349730253,964.5000190585852,1812.5000349730253L1020.5000190585852,1812.5000349730253"></path><path id="kity_path_723" fill="none" stroke="rgb(115, 161, 191)" stroke-width="1" d="M934.5000190585852,1838.5000349730253C949.5000190585852,1838.5000349730253,949.5000190585852,1864.5000349730253,964.5000190585852,1864.5000349730253L1020.5000190585852,1864.5000349730253"></path><path id="kity_path_724" fill="none" stroke="rgb(115, 161, 191)" stroke-width="1" d="M848.5000190585852,1785.5000349730253C863.5000190585852,1785.5000349730253,863.5000190585852,1838.5000349730253,878.5000190585852,1838.5000349730253L934.5000190585852,1838.5000349730253"></path><path id="kity_path_725" fill="none" stroke="rgb(115, 161, 191)" stroke-width="1" d="M865.5000190585852,1572.5000349730253C880.5000190585852,1572.5000349730253,880.5000190585852,1586.5000349730253,895.5000190585852,1586.5000349730253L950.5000190585852,1586.5000349730253"></path><path id="kity_path_726" fill="none" stroke="rgb(115, 161, 191)" stroke-width="1" d="M208.50001905858517,1533.5000349730253C193.50001905858517,1533.5000349730253,193.50001905858517,1493.5000349730253,178.50001905858517,1493.5000349730253L123.50001905858517,1493.5000349730253"></path><path id="kity_path_727" fill="none" stroke="rgb(115, 161, 191)" stroke-width="1" d="M208.50001905858517,1533.5000349730253C193.50001905858517,1533.5000349730253,193.50001905858517,1545.5000349730253,178.50001905858517,1545.5000349730253L123.50001905858517,1545.5000349730253"></path><path id="kity_path_728" fill="none" stroke="rgb(115, 161, 191)" stroke-width="1" d="M208.50001905858517,1533.5000349730253C193.50001905858517,1533.5000349730253,193.50001905858517,1602.5000349730253,178.50001905858517,1602.5000349730253L49.50001905858517,1602.5000349730253"></path><path id="kity_path_729" fill="none" stroke="rgb(115, 161, 191)" stroke-width="1" d="M225.50001905858517,1695.5000349730253C210.50001905858517,1695.5000349730253,210.50001905858517,1629.5000349730253,195.50001905858517,1629.5000349730253L140.50001905858517,1629.5000349730253"></path><path id="kity_path_730" fill="none" stroke="rgb(115, 161, 191)" stroke-width="1" d="M225.50001905858517,1695.5000349730253C210.50001905858517,1695.5000349730253,210.50001905858517,1681.5000349730253,195.50001905858517,1681.5000349730253L140.50001905858517,1681.5000349730253"></path><path id="kity_path_731" fill="none" stroke="rgb(115, 161, 191)" stroke-width="1" d="M225.50001905858517,1695.5000349730253C210.50001905858517,1695.5000349730253,210.50001905858517,1738.5000349730253,195.50001905858517,1738.5000349730253L66.50001905858517,1738.5000349730253"></path><path id="kity_path_732" fill="none" stroke="rgb(115, 161, 191)" stroke-width="1" d="M225.50001905858517,1695.5000349730253C210.50001905858517,1695.5000349730253,210.50001905858517,1790.5000349730253,195.50001905858517,1790.5000349730253L72.50001905858517,1790.5000349730253"></path></g><g id="minder_node1"><path id="node_outline1" fill="rgb(115, 161, 191)" stroke="rgb(115, 161, 191)" d="M493.50001905858517,1385.5000349730253h182a5,5,0,0,1,5,5v30a5,5,0,0,1,-5,5h-182a5,5,0,0,1,-5,-5v-30a5,5,0,0,1,5,-5z" stroke-width="3"></path><g id="node_text1" fill="white"><text id="kity_text_22" text-rendering="inherit" font-size="16" dy=".8em" y="1395.1000348061323" x="512.5000190585852">专家库之领域模型图</text></g></g><g id="kity_g_14" display="none"><path id="kity_path_15" fill="rgba(0, 92, 153, 0.5)" stroke="none" d="M367.50001905858517,479.5000349730253h124v20h-124z"></path><path id="kity_path_16" fill="none" stroke="rgb(0, 76, 128)" d="M367.50001905858517,499.5000349730253L491.50001905858517,499.5000349730253" stroke-width="1"></path></g><g id="minder_node2" opacity="1"><g id="node_expander4" style="cursor: pointer;"><path id="kity_path_382" fill="white" stroke="gray" d="M743.5000257641077,309.50000230968A6,6,0,1,1,731.5000257641077,309.50000230968A6,6,0,1,1,743.5000257641077,309.50000230968"></path><path id="kity_path_383" fill="none" stroke="gray" d="M733.0000257641077,309.50000230968L742.0000257641077,309.50000230968"></path></g><path id="node_outline5" fill="rgb(238, 243, 246)" stroke="rgb(115, 161, 191)" d="M747.5000265687704,296.50000230968h90a3,3,0,0,1,3,3v20a3,3,0,0,1,-3,3h-90a3,3,0,0,1,-3,-3v-20a3,3,0,0,1,3,-3z" stroke-width="1"></path><g id="node_text5" fill="black"><text id="kity_text_169" text-rendering="inherit" font-size="14" dy=".8em" y="300.4000023424625" x="764.5000265687704">专家注册</text></g></g><g id="minder_node6" opacity="1"><g id="node_expander6" style="cursor: pointer;"><path id="kity_path_388" fill="white" stroke="gray" d="M171.5000087171793,901.5000199526548A6,6,0,1,1,159.5000087171793,901.5000199526548A6,6,0,1,1,171.5000087171793,901.5000199526548"></path><path id="kity_path_389" fill="none" stroke="gray" d="M161.0000087171793,901.5000199526548L170.0000087171793,901.5000199526548"></path></g><path id="node_outline7" fill="rgb(238, 243, 246)" stroke="rgb(115, 161, 191)" d="M175.500009521842,888.5000199526548h146a3,3,0,0,1,3,3v20a3,3,0,0,1,-3,3h-146a3,3,0,0,1,-3,-3v-20a3,3,0,0,1,3,-3z" stroke-width="1"></path><g id="node_text7" fill="black"><text id="kity_text_173" text-rendering="inherit" font-size="14" dy=".8em" y="892.4000199854374" x="192.500009521842">专家选中短信通知</text></g></g><g id="minder_node8"><g id="node_expander9" style="cursor: pointer;"><path id="kity_path_397" fill="white" stroke="gray" d="M750.500025972724,503.5000080913305A6,6,0,1,1,738.500025972724,503.5000080913305A6,6,0,1,1,750.500025972724,503.5000080913305"></path><path id="kity_path_398" fill="none" stroke="gray" d="M740.000025972724,503.5000080913305L749.000025972724,503.5000080913305"></path></g><path id="node_outline10" fill="rgb(238, 243, 246)" stroke="rgb(115, 161, 191)" d="M754.5000267773867,490.5000080913305h62a3,3,0,0,1,3,3v20a3,3,0,0,1,-3,3h-62a3,3,0,0,1,-3,-3v-20a3,3,0,0,1,3,-3z" stroke-width="1"></path><g id="node_text10" fill="black"><text id="kity_text_179" text-rendering="inherit" font-size="14" dy=".8em" y="494.40000812411307" x="771.5000267773867">专业</text></g></g><g id="minder_node9"><g id="node_expander7" style="cursor: pointer;" display="none"><path id="kity_path_391" fill="white" stroke="gray" d="M859.5000292211771,478.0000073313713A6,6,0,1,1,847.5000292211771,478.0000073313713A6,6,0,1,1,859.5000292211771,478.0000073313713"></path><path id="kity_path_392" fill="none" stroke="gray"></path></g><path id="node_outline8" fill="none" stroke="none" d="M864.5000296980143,464.50000731647015h56a5,5,0,0,1,5,5v17a5,5,0,0,1,-5,5h-56a5,5,0,0,1,-5,-5v-17a5,5,0,0,1,5,-5z"></path><g id="node_text8" fill="black"><text id="kity_text_175" text-rendering="inherit" font-size="12" dy=".8em" y="469.70000738998255" x="869.5000296980143">字段</text></g><g id="kity_g_294" style="cursor: pointer;"><path id="kity_path_295" fill="none" stroke="none" d="M902.0000305920839,469.00000731647015h12a2,2,0,0,1,2,2v13a2,2,0,0,1,-2,2h-12a2,2,0,0,1,-2,-2v-13a2,2,0,0,1,2,-2z"></path><path id="kity_path_296" fill="black" stroke="none" d="M911.0000306665897,480.00000712275505H905.0000306665897V479.00000712275505h6L911.0000306665897,480.00000712275505L911.0000306665897,480.00000712275505zM911.0000306665897,478.00000712275505H905.0000306665897V477.00000712275505h6V478.00000712275505zM911.0000306665897,476.00000712275505H905.0000306665897V475.00000712275505h6V476.00000712275505zM910.5000306665897,482.00000712275505H904.0000306665897V473.00000712275505h8v7.5M911.0000306665897,483.00000712275505l2,-2V472.00000712275505H903.0000306665897v11"></path></g></g><g id="minder_node10"><g id="node_expander8" style="cursor: pointer;" display="none"><path id="kity_path_394" fill="white" stroke="gray" d="M859.5000292211771,532.5000089555979A6,6,0,1,1,847.5000292211771,532.5000089555979A6,6,0,1,1,859.5000292211771,532.5000089555979"></path><path id="kity_path_395" fill="none" stroke="gray"></path></g><path id="node_outline9" fill="none" stroke="none" d="M864.5000296980143,521.5000089555979h35a5,5,0,0,1,5,5v12a5,5,0,0,1,-5,5h-35a5,5,0,0,1,-5,-5v-12a5,5,0,0,1,5,-5z"></path><g id="node_text9" fill="black"><text id="kity_text_177" text-rendering="inherit" font-size="12" dy=".8em" y="524.7000090291103" x="869.5000296980143">方法</text></g></g><g id="minder_node11"><g id="node_expander13" style="cursor: pointer;"><path id="kity_path_409" fill="white" stroke="gray" d="M804.5000275820494,639.5000121444464A6,6,0,1,1,792.5000275820494,639.5000121444464A6,6,0,1,1,804.5000275820494,639.5000121444464"></path><path id="kity_path_410" fill="none" stroke="gray" d="M794.0000275820494,639.5000121444464L803.0000275820494,639.5000121444464"></path></g><path id="node_outline14" fill="rgb(238, 243, 246)" stroke="rgb(115, 161, 191)" d="M808.5000283867121,626.5000121444464h119a3,3,0,0,1,3,3v20a3,3,0,0,1,-3,3h-119a3,3,0,0,1,-3,-3v-20a3,3,0,0,1,3,-3z" stroke-width="1"></path><g id="node_text14" fill="black"><text id="kity_text_187" text-rendering="inherit" font-size="14" dy=".8em" y="630.400012177229" x="825.5000283867121">专家资料修改</text></g></g><g id="minder_node12"><g id="node_expander10" style="cursor: pointer;" display="none"><path id="kity_path_400" fill="white" stroke="gray" d="M970.5000325292349,587.5000105947256A6,6,0,1,1,958.5000325292349,587.5000105947256A6,6,0,1,1,970.5000325292349,587.5000105947256"></path><path id="kity_path_401" fill="none" stroke="gray"></path></g><path id="node_outline11" fill="none" stroke="none" d="M975.500033006072,576.5000105947256h35a5,5,0,0,1,5,5v12a5,5,0,0,1,-5,5h-35a5,5,0,0,1,-5,-5v-12a5,5,0,0,1,5,-5z"></path><g id="node_text11" fill="black"><text id="kity_text_181" text-rendering="inherit" font-size="12" dy=".8em" y="579.7000106682381" x="980.500033006072">字段</text></g></g><g id="minder_node13"><g id="node_expander11" style="cursor: pointer;" display="none"><path id="kity_path_403" fill="white" stroke="gray" d="M970.5000325292349,639.5000121444464A6,6,0,1,1,958.5000325292349,639.5000121444464A6,6,0,1,1,970.5000325292349,639.5000121444464"></path><path id="kity_path_404" fill="none" stroke="gray"></path></g><path id="node_outline12" fill="none" stroke="none" d="M975.500033006072,628.5000121444464h35a5,5,0,0,1,5,5v12a5,5,0,0,1,-5,5h-35a5,5,0,0,1,-5,-5v-12a5,5,0,0,1,5,-5z"></path><g id="node_text12" fill="black"><text id="kity_text_183" text-rendering="inherit" font-size="12" dy=".8em" y="631.7000122179588" x="980.500033006072">方法</text></g></g><g id="minder_node14"><g id="node_expander12" style="cursor: pointer;" display="none"><path id="kity_path_406" fill="white" stroke="gray" d="M970.5000325292349,691.5000136941671A6,6,0,1,1,958.5000325292349,691.5000136941671A6,6,0,1,1,970.5000325292349,691.5000136941671"></path><path id="kity_path_407" fill="none" stroke="gray"></path></g><path id="node_outline13" fill="none" stroke="none" d="M975.500033006072,680.5000136941671h103a5,5,0,0,1,5,5v12a5,5,0,0,1,-5,5h-103a5,5,0,0,1,-5,-5v-12a5,5,0,0,1,5,-5z"></path><g id="node_text13" fill="black"><text id="kity_text_185" text-rendering="inherit" font-size="12" dy=".8em" y="683.7000137676796" x="980.500033006072">流程[详见流程图]</text></g></g><g id="minder_node15" opacity="1"><g id="node_expander16" style="cursor: pointer;"><path id="kity_path_418" fill="white" stroke="gray" d="M797.5000273734331,792.5000167042017A6,6,0,1,1,785.5000273734331,792.5000167042017A6,6,0,1,1,797.5000273734331,792.5000167042017"></path><path id="kity_path_419" fill="none" stroke="gray" d="M787.0000273734331,792.5000167042017L796.0000273734331,792.5000167042017"></path></g><path id="node_outline17" fill="rgb(238, 243, 246)" stroke="rgb(115, 161, 191)" d="M801.5000281780958,779.5000167042017h91a3,3,0,0,1,3,3v20a3,3,0,0,1,-3,3h-91a3,3,0,0,1,-3,-3v-20a3,3,0,0,1,3,-3z" stroke-width="1"></path><g id="node_text17" fill="black"><text id="kity_text_193" text-rendering="inherit" font-size="14" dy=".8em" y="783.4000167369843" x="818.5000281780958">专家登录</text></g></g><g id="minder_node18" opacity="1"><g id="node_expander26" style="cursor: pointer;"><path id="kity_path_448" fill="white" stroke="gray" d="M460.50001733005047,187.49999867379665A6,6,0,1,1,448.50001733005047,187.49999867379665A6,6,0,1,1,460.50001733005047,187.49999867379665"></path><path id="kity_path_449" fill="none" stroke="gray" d="M450.00001733005047,187.49999867379665L459.00001733005047,187.49999867379665"></path></g><path id="node_outline27" fill="rgb(238, 243, 246)" stroke="rgb(115, 161, 191)" d="M464.5000181347132,174.49999867379665h104a3,3,0,0,1,3,3v20a3,3,0,0,1,-3,3h-104a3,3,0,0,1,-3,-3v-20a3,3,0,0,1,3,-3z" stroke-width="1"></path><g id="node_text27" fill="black"><text id="kity_text_213" text-rendering="inherit" font-size="14" dy=".8em" y="178.3999987065792" x="481.5000181347132">抽取计划单</text></g></g><g id="minder_node28" opacity="1"><g id="node_expander29" style="cursor: pointer;"><path id="kity_path_457" fill="white" stroke="gray" d="M272.50001172721386,643.5000122636557A6,6,0,1,1,260.50001172721386,643.5000122636557A6,6,0,1,1,272.50001172721386,643.5000122636557"></path><path id="kity_path_458" fill="none" stroke="gray" d="M262.00001172721386,643.5000122636557L271.00001172721386,643.5000122636557"></path></g><path id="node_outline30" fill="rgb(238, 243, 246)" stroke="rgb(115, 161, 191)" d="M276.50001253187656,630.5000122636557h118a3,3,0,0,1,3,3v20a3,3,0,0,1,-3,3h-118a3,3,0,0,1,-3,-3v-20a3,3,0,0,1,3,-3z" stroke-width="1"></path><g id="node_text30" fill="black"><text id="kity_text_219" text-rendering="inherit" font-size="14" dy=".8em" y="634.4000122964383" x="293.50001253187656">专家选取通知</text></g></g><g id="minder_node31" opacity="1"><g id="node_expander32" style="cursor: pointer;"><path id="kity_path_466" fill="white" stroke="gray" d="M175.5000088363886,791.5000166743994A6,6,0,1,1,163.5000088363886,791.5000166743994A6,6,0,1,1,175.5000088363886,791.5000166743994"></path><path id="kity_path_467" fill="none" stroke="gray" d="M165.0000088363886,791.5000166743994L174.0000088363886,791.5000166743994"></path></g><path id="node_outline33" fill="rgb(238, 243, 246)" stroke="rgb(115, 161, 191)" d="M179.5000096410513,778.5000166743994h119a3,3,0,0,1,3,3v20a3,3,0,0,1,-3,3h-119a3,3,0,0,1,-3,-3v-20a3,3,0,0,1,3,-3z" stroke-width="1"></path><g id="node_text33" fill="black"><text id="kity_text_225" text-rendering="inherit" font-size="14" dy=".8em" y="782.400016707182" x="196.5000096410513">专家短信反馈</text></g></g><g id="minder_node34" opacity="1"><g id="node_expander36" style="cursor: pointer;"><path id="kity_path_478" fill="white" stroke="gray" d="M207.5000097900629,1533.5000387877226A6,6,0,1,1,195.5000097900629,1533.5000387877226A6,6,0,1,1,207.5000097900629,1533.5000387877226"></path><path id="kity_path_479" fill="none" stroke="gray" d="M197.0000097900629,1533.5000387877226L206.0000097900629,1533.5000387877226"></path></g><path id="node_outline37" fill="rgb(238, 243, 246)" stroke="rgb(115, 161, 191)" d="M211.5000105947256,1520.5000387877226h91a3,3,0,0,1,3,3v20a3,3,0,0,1,-3,3h-91a3,3,0,0,1,-3,-3v-20a3,3,0,0,1,3,-3z" stroke-width="1"></path><g id="node_text37" fill="black"><text id="kity_text_233" text-rendering="inherit" font-size="14" dy=".8em" y="1524.4000388205052" x="228.5000105947256">预警管理</text></g></g><g id="minder_node38" opacity="1"><g id="node_expander41" style="cursor: pointer;"><path id="kity_path_493" fill="white" stroke="gray" d="M224.50001029670238,1695.5000436156988A6,6,0,1,1,212.50001029670238,1695.5000436156988A6,6,0,1,1,224.50001029670238,1695.5000436156988"></path><path id="kity_path_494" fill="none" stroke="gray" d="M214.00001029670238,1695.5000436156988L223.00001029670238,1695.5000436156988"></path></g><path id="node_outline42" fill="rgb(238, 243, 246)" stroke="rgb(115, 161, 191)" d="M228.5000111013651,1682.5000436156988h76a3,3,0,0,1,3,3v20a3,3,0,0,1,-3,3h-76a3,3,0,0,1,-3,-3v-20a3,3,0,0,1,3,-3z" stroke-width="1"></path><g id="node_text42" fill="black"><text id="kity_text_243" text-rendering="inherit" font-size="14" dy=".8em" y="1686.4000436484814" x="245.5000111013651">黑名单</text></g></g><g id="minder_node43" opacity="1"><g id="node_expander45" style="cursor: pointer;"><path id="kity_path_505" fill="white" stroke="gray" d="M506.5000187009573,495.50000785291195A6,6,0,1,1,494.5000187009573,495.50000785291195A6,6,0,1,1,506.5000187009573,495.50000785291195"></path><path id="kity_path_506" fill="none" stroke="gray" d="M496.0000187009573,495.50000785291195L505.0000187009573,495.50000785291195"></path></g><path id="node_outline46" fill="rgb(238, 243, 246)" stroke="rgb(115, 161, 191)" d="M344.5000145584345,482.50000785291195h146a3,3,0,0,1,3,3v20a3,3,0,0,1,-3,3h-146a3,3,0,0,1,-3,-3v-20a3,3,0,0,1,3,-3z" stroke-width="1"></path><g id="node_text46" fill="black"><text id="kity_text_251" text-rendering="inherit" font-size="14" dy=".8em" y="486.4000078856945" x="361.5000145584345">专家使用规则设定</text></g></g><g id="minder_node50" opacity="1"><g id="node_expander51" style="cursor: pointer;"><path id="kity_path_523" fill="white" stroke="gray" d="M980.5000328272581,872.5000190883875A6,6,0,1,1,968.5000328272581,872.5000190883875A6,6,0,1,1,980.5000328272581,872.5000190883875"></path><path id="kity_path_524" fill="none" stroke="gray" d="M970.0000328272581,872.5000190883875L979.0000328272581,872.5000190883875"></path></g><path id="node_outline52" fill="rgb(238, 243, 246)" stroke="rgb(115, 161, 191)" d="M873.500030323863,859.5000190883875h91a3,3,0,0,1,3,3v20a3,3,0,0,1,-3,3h-91a3,3,0,0,1,-3,-3v-20a3,3,0,0,1,3,-3z" stroke-width="1"></path><g id="node_text52" fill="black"><text id="kity_text_263" text-rendering="inherit" font-size="14" dy=".8em" y="863.4000191211701" x="890.500030323863">评价指标</text></g></g><g id="minder_node53"><g id="node_expander54" style="cursor: pointer;"><path id="kity_path_532" fill="white" stroke="gray" d="M938.5000315755606,1011.5000232309103A6,6,0,1,1,926.5000315755606,1011.5000232309103A6,6,0,1,1,938.5000315755606,1011.5000232309103"></path><path id="kity_path_533" fill="none" stroke="gray" d="M928.0000315755606,1011.5000232309103L937.0000315755606,1011.5000232309103"></path></g><path id="node_outline55" fill="rgb(238, 243, 246)" stroke="rgb(115, 161, 191)" d="M803.5000282377005,998.5000232309103h119a3,3,0,0,1,3,3v20a3,3,0,0,1,-3,3h-119a3,3,0,0,1,-3,-3v-20a3,3,0,0,1,3,-3z" stroke-width="1"></path><g id="node_text55" fill="black"><text id="kity_text_269" text-rendering="inherit" font-size="14" dy=".8em" y="1002.4000232636929" x="820.5000282377005">专家评价记录</text></g></g><g id="minder_node54"><g id="node_expander52" style="cursor: pointer;" display="none"><path id="kity_path_526" fill="white" stroke="gray" d="M965.5000323802233,985.5000224560499A6,6,0,1,1,953.5000323802233,985.5000224560499A6,6,0,1,1,965.5000323802233,985.5000224560499"></path><path id="kity_path_527" fill="none" stroke="gray"></path></g><path id="node_outline53" fill="none" stroke="none" d="M970.5000328570604,974.5000224560499h35a5,5,0,0,1,5,5v12a5,5,0,0,1,-5,5h-35a5,5,0,0,1,-5,-5v-12a5,5,0,0,1,5,-5z"></path><g id="node_text53" fill="black"><text id="kity_text_265" text-rendering="inherit" font-size="12" dy=".8em" y="977.7000225295624" x="975.5000328570604">字段</text></g></g><g id="minder_node55"><g id="node_expander53" style="cursor: pointer;" display="none"><path id="kity_path_529" fill="white" stroke="gray" d="M965.5000323802233,1037.5000240057707A6,6,0,1,1,953.5000323802233,1037.5000240057707A6,6,0,1,1,965.5000323802233,1037.5000240057707"></path><path id="kity_path_530" fill="none" stroke="gray"></path></g><path id="node_outline54" fill="none" stroke="none" d="M970.5000328570604,1026.5000240057707h35a5,5,0,0,1,5,5v12a5,5,0,0,1,-5,5h-35a5,5,0,0,1,-5,-5v-12a5,5,0,0,1,5,-5z"></path><g id="node_text54" fill="black"><text id="kity_text_267" text-rendering="inherit" font-size="12" dy=".8em" y="1029.7000240792831" x="975.5000328570604">方法</text></g></g><g id="minder_node56"><g id="node_expander57" style="cursor: pointer;"><path id="kity_path_541" fill="white" stroke="gray" d="M342.5000138133764,980.5000223070383A6,6,0,1,1,330.5000138133764,980.5000223070383A6,6,0,1,1,342.5000138133764,980.5000223070383"></path><path id="kity_path_542" fill="none" stroke="gray" d="M332.0000138133764,980.5000223070383L341.0000138133764,980.5000223070383"></path></g><path id="node_outline58" fill="rgb(238, 243, 246)" stroke="rgb(115, 161, 191)" d="M221.50001089274883,967.5000223070383h105a3,3,0,0,1,3,3v20a3,3,0,0,1,-3,3h-105a3,3,0,0,1,-3,-3v-20a3,3,0,0,1,3,-3z" stroke-width="1"></path><g id="node_text58" fill="black"><text id="kity_text_275" text-rendering="inherit" font-size="14" dy=".8em" y="971.4000223398209" x="238.50001089274883">津补贴设定</text></g></g><g id="minder_node57"><g id="node_expander55" style="cursor: pointer;" display="none"><path id="kity_path_535" fill="white" stroke="gray" d="M190.50000928342342,954.5000215321779A6,6,0,1,1,178.50000928342342,954.5000215321779A6,6,0,1,1,190.50000928342342,954.5000215321779"></path><path id="kity_path_536" fill="none" stroke="gray"></path></g><path id="node_outline56" fill="none" stroke="none" d="M138.5000080615282,943.5000215321779h35a5,5,0,0,1,5,5v12a5,5,0,0,1,-5,5h-35a5,5,0,0,1,-5,-5v-12a5,5,0,0,1,5,-5z"></path><g id="node_text56" fill="black"><text id="kity_text_271" text-rendering="inherit" font-size="12" dy=".8em" y="946.7000216056904" x="143.5000080615282">字段</text></g></g><g id="minder_node58"><g id="node_expander56" style="cursor: pointer;" display="none"><path id="kity_path_538" fill="white" stroke="gray" d="M190.50000928342342,1006.5000230818987A6,6,0,1,1,178.50000928342342,1006.5000230818987A6,6,0,1,1,190.50000928342342,1006.5000230818987"></path><path id="kity_path_539" fill="none" stroke="gray"></path></g><path id="node_outline57" fill="none" stroke="none" d="M138.5000080615282,995.5000230818987h35a5,5,0,0,1,5,5v12a5,5,0,0,1,-5,5h-35a5,5,0,0,1,-5,-5v-12a5,5,0,0,1,5,-5z"></path><g id="node_text57" fill="black"><text id="kity_text_273" text-rendering="inherit" font-size="12" dy=".8em" y="998.7000231554111" x="143.5000080615282">方法</text></g></g><g id="minder_node59"><g id="node_expander60" style="cursor: pointer;"><path id="kity_path_550" fill="white" stroke="gray" d="M360.50001434981823,1132.5000268369913A6,6,0,1,1,348.50001434981823,1132.5000268369913A6,6,0,1,1,360.50001434981823,1132.5000268369913"></path><path id="kity_path_551" fill="none" stroke="gray" d="M350.00001434981823,1132.5000268369913L359.00001434981823,1132.5000268369913"></path></g><path id="node_outline61" fill="rgb(238, 243, 246)" stroke="rgb(115, 161, 191)" d="M211.5000105947256,1119.5000268369913h133a3,3,0,0,1,3,3v20a3,3,0,0,1,-3,3h-133a3,3,0,0,1,-3,-3v-20a3,3,0,0,1,3,-3z" stroke-width="1"></path><g id="node_text61" fill="black"><text id="kity_text_281" text-rendering="inherit" font-size="14" dy=".8em" y="1123.400026869774" x="228.5000105947256">专家津补贴记录</text></g></g><g id="minder_node60"><g id="node_expander58" style="cursor: pointer;" display="none"><path id="kity_path_544" fill="white" stroke="gray" d="M180.5000089854002,1106.500026062131A6,6,0,1,1,168.5000089854002,1106.500026062131A6,6,0,1,1,180.5000089854002,1106.500026062131"></path><path id="kity_path_545" fill="none" stroke="gray"></path></g><path id="node_outline59" fill="none" stroke="none" d="M128.50000776350498,1095.500026062131h35a5,5,0,0,1,5,5v12a5,5,0,0,1,-5,5h-35a5,5,0,0,1,-5,-5v-12a5,5,0,0,1,5,-5z"></path><g id="node_text59" fill="black"><text id="kity_text_277" text-rendering="inherit" font-size="12" dy=".8em" y="1098.7000261356434" x="133.50000776350498">字段</text></g></g><g id="minder_node61"><g id="node_expander59" style="cursor: pointer;" display="none"><path id="kity_path_547" fill="white" stroke="gray" d="M180.5000089854002,1158.5000276118517A6,6,0,1,1,168.5000089854002,1158.5000276118517A6,6,0,1,1,180.5000089854002,1158.5000276118517"></path><path id="kity_path_548" fill="none" stroke="gray"></path></g><path id="node_outline60" fill="none" stroke="none" d="M128.50000776350498,1147.5000276118517h35a5,5,0,0,1,5,5v12a5,5,0,0,1,-5,5h-35a5,5,0,0,1,-5,-5v-12a5,5,0,0,1,5,-5z"></path><g id="node_text60" fill="black"><text id="kity_text_279" text-rendering="inherit" font-size="12" dy=".8em" y="1150.7000276853641" x="133.50000776350498">方法</text></g></g><g id="minder_node62"><g id="node_expander63" style="cursor: pointer;"><path id="kity_path_559" fill="white" stroke="gray" d="M369.50001461803913,1258.500030592084A6,6,0,1,1,357.50001461803913,1258.500030592084A6,6,0,1,1,369.50001461803913,1258.500030592084"></path><path id="kity_path_560" fill="none" stroke="gray" d="M359.00001461803913,1258.500030592084L368.00001461803913,1258.500030592084"></path></g><path id="node_outline64" fill="rgb(238, 243, 246)" stroke="rgb(115, 161, 191)" d="M220.5000108629465,1245.500030592084h133a3,3,0,0,1,3,3v20a3,3,0,0,1,-3,3h-133a3,3,0,0,1,-3,-3v-20a3,3,0,0,1,3,-3z" stroke-width="1"></path><g id="node_text64" fill="black"><text id="kity_text_287" text-rendering="inherit" font-size="14" dy=".8em" y="1249.4000306248665" x="237.5000108629465">专家汇总津补贴</text></g></g><g id="minder_node63"><g id="node_expander61" style="cursor: pointer;" display="none"><path id="kity_path_553" fill="white" stroke="gray" d="M189.5000092536211,1233.0000298321247A6,6,0,1,1,177.5000092536211,1233.0000298321247A6,6,0,1,1,189.5000092536211,1233.0000298321247"></path><path id="kity_path_554" fill="none" stroke="gray"></path></g><path id="node_outline62" fill="none" stroke="none" d="M87.50000654160976,1219.5000298172235h85a5,5,0,0,1,5,5v17a5,5,0,0,1,-5,5h-85a5,5,0,0,1,-5,-5v-17a5,5,0,0,1,5,-5z"></path><g id="node_text62" fill="black"><text id="kity_text_283" text-rendering="inherit" font-size="12" dy=".8em" y="1224.700029890736" x="92.50000654160976">流程/规则</text></g><g id="kity_g_303" style="cursor: pointer;"><path id="kity_path_304" fill="none" stroke="none" d="M154.00000829994678,1224.0000298172235h12a2,2,0,0,1,2,2v13a2,2,0,0,1,-2,2h-12a2,2,0,0,1,-2,-2v-13a2,2,0,0,1,2,-2z"></path><path id="kity_path_305" fill="black" stroke="none" d="M163.0000083744526,1235.0000296235085H157.0000083744526V1234.0000296235085h6L163.0000083744526,1235.0000296235085L163.0000083744526,1235.0000296235085zM163.0000083744526,1233.0000296235085H157.0000083744526V1232.0000296235085h6V1233.0000296235085zM163.0000083744526,1231.0000296235085H157.0000083744526V1230.0000296235085h6V1231.0000296235085zM162.5000083744526,1237.0000296235085H156.0000083744526V1228.0000296235085h8v7.5M163.0000083744526,1238.0000296235085l2,-2V1227.0000296235085H155.0000083744526v11"></path></g></g><g id="minder_node64"><g id="node_expander62" style="cursor: pointer;" display="none"><path id="kity_path_556" fill="white" stroke="gray" d="M189.5000092536211,1287.5000314563513A6,6,0,1,1,177.5000092536211,1287.5000314563513A6,6,0,1,1,189.5000092536211,1287.5000314563513"></path><path id="kity_path_557" fill="none" stroke="gray"></path></g><path id="node_outline63" fill="none" stroke="none" d="M137.50000803172588,1276.5000314563513h35a5,5,0,0,1,5,5v12a5,5,0,0,1,-5,5h-35a5,5,0,0,1,-5,-5v-12a5,5,0,0,1,5,-5z"></path><g id="node_text63" fill="black"><text id="kity_text_285" text-rendering="inherit" font-size="12" dy=".8em" y="1279.7000315298637" x="142.50000803172588">字段</text></g></g><g id="minder_node65"><g id="node_expander66" style="cursor: pointer;"><path id="kity_path_568" fill="white" stroke="gray" d="M823.5000281482935,1307.5000320523977A6,6,0,1,1,811.5000281482935,1307.5000320523977A6,6,0,1,1,823.5000281482935,1307.5000320523977"></path><path id="kity_path_569" fill="none" stroke="gray" d="M813.0000281482935,1307.5000320523977L822.0000281482935,1307.5000320523977"></path></g><path id="node_outline67" fill="rgb(238, 243, 246)" stroke="rgb(115, 161, 191)" d="M717.5000256747007,1294.5000320523977h90a3,3,0,0,1,3,3v20a3,3,0,0,1,-3,3h-90a3,3,0,0,1,-3,-3v-20a3,3,0,0,1,3,-3z" stroke-width="1"></path><g id="node_text67" fill="black"><text id="kity_text_293" text-rendering="inherit" font-size="14" dy=".8em" y="1298.4000320851803" x="734.5000256747007">专家出勤</text></g></g><g id="minder_node66"><g id="node_expander64" style="cursor: pointer;" display="none"><path id="kity_path_562" fill="white" stroke="gray" d="M850.5000289529562,1281.5000312775373A6,6,0,1,1,838.5000289529562,1281.5000312775373A6,6,0,1,1,850.5000289529562,1281.5000312775373"></path><path id="kity_path_563" fill="none" stroke="gray"></path></g><path id="node_outline65" fill="none" stroke="none" d="M855.5000294297934,1270.5000312775373h35a5,5,0,0,1,5,5v12a5,5,0,0,1,-5,5h-35a5,5,0,0,1,-5,-5v-12a5,5,0,0,1,5,-5z"></path><g id="node_text65" fill="black"><text id="kity_text_289" text-rendering="inherit" font-size="12" dy=".8em" y="1273.7000313510498" x="860.5000294297934">方法</text></g></g><g id="minder_node67"><g id="node_expander65" style="cursor: pointer;" display="none"><path id="kity_path_565" fill="white" stroke="gray" d="M850.5000289529562,1333.500032827258A6,6,0,1,1,838.5000289529562,1333.500032827258A6,6,0,1,1,850.5000289529562,1333.500032827258"></path><path id="kity_path_566" fill="none" stroke="gray"></path></g><path id="node_outline66" fill="none" stroke="none" d="M855.5000294297934,1322.500032827258h35a5,5,0,0,1,5,5v12a5,5,0,0,1,-5,5h-35a5,5,0,0,1,-5,-5v-12a5,5,0,0,1,5,-5z"></path><g id="node_text66" fill="black"><text id="kity_text_291" text-rendering="inherit" font-size="12" dy=".8em" y="1325.7000329007706" x="860.5000294297934">字段</text></g></g><g id="minder_node68" opacity="1"><g id="node_expander67" style="cursor: pointer;"><path id="kity_path_576" fill="white" stroke="gray" d="M878.5000297874212,1572.5000399500132A6,6,0,1,1,866.5000297874212,1572.5000399500132A6,6,0,1,1,878.5000297874212,1572.5000399500132"></path><path id="kity_path_577" fill="none" stroke="gray" d="M868.0000297874212,1572.5000399500132L877.0000297874212,1572.5000399500132"></path></g><path id="node_outline68" fill="rgb(238, 243, 246)" stroke="rgb(115, 161, 191)" d="M716.5000256448984,1559.5000399500132h146a3,3,0,0,1,3,3v20a3,3,0,0,1,-3,3h-146a3,3,0,0,1,-3,-3v-20a3,3,0,0,1,3,-3z" stroke-width="1"></path><g id="node_text68" fill="black"><text id="kity_text_573" text-rendering="inherit" font-size="14" dy=".8em" y="1563.4000399827958" x="733.5000256448984">OA待办/待阅集成</text></g></g><g id="minder_node69" opacity="1"><g id="node_expander68" style="cursor: pointer;"><path id="kity_path_588" fill="white" stroke="gray" d="M861.5000292807817,1785.5000462979078A6,6,0,1,1,849.5000292807817,1785.5000462979078A6,6,0,1,1,861.5000292807817,1785.5000462979078"></path><path id="kity_path_589" fill="none" stroke="gray" d="M851.0000292807817,1785.5000462979078L860.0000292807817,1785.5000462979078"></path></g><path id="node_outline69" fill="rgb(238, 243, 246)" stroke="rgb(115, 161, 191)" d="M712.5000255256891,1772.5000462979078h133a3,3,0,0,1,3,3v20a3,3,0,0,1,-3,3h-133a3,3,0,0,1,-3,-3v-20a3,3,0,0,1,3,-3z" stroke-width="1"></path><g id="node_text69" fill="black"><text id="kity_text_585" text-rendering="inherit" font-size="14" dy=".8em" y="1776.4000463306904" x="729.5000255256891">津补贴支付接口</text></g></g><g id="minder_node51"><g id="node_expander49" style="cursor: pointer;" display="none"><path id="kity_path_517" fill="white" stroke="gray" d="M1007.5000336319208,846.5000183135271A6,6,0,1,1,995.5000336319208,846.5000183135271A6,6,0,1,1,1007.5000336319208,846.5000183135271"></path><path id="kity_path_518" fill="none" stroke="gray"></path></g><path id="node_outline50" fill="none" stroke="none" d="M1012.500034108758,835.5000183135271h35a5,5,0,0,1,5,5v12a5,5,0,0,1,-5,5h-35a5,5,0,0,1,-5,-5v-12a5,5,0,0,1,5,-5z"></path><g id="node_text50" fill="black"><text id="kity_text_259" text-rendering="inherit" font-size="12" dy=".8em" y="838.7000183870396" x="1017.500034108758">字段</text></g></g><g id="minder_node52"><g id="node_expander50" style="cursor: pointer;" display="none"><path id="kity_path_520" fill="white" stroke="gray" d="M1007.5000336319208,898.5000198632479A6,6,0,1,1,995.5000336319208,898.5000198632479A6,6,0,1,1,1007.5000336319208,898.5000198632479"></path><path id="kity_path_521" fill="none" stroke="gray"></path></g><path id="node_outline51" fill="none" stroke="none" d="M1012.500034108758,887.5000198632479h35a5,5,0,0,1,5,5v12a5,5,0,0,1,-5,5h-35a5,5,0,0,1,-5,-5v-12a5,5,0,0,1,5,-5z"></path><g id="node_text51" fill="black"><text id="kity_text_261" text-rendering="inherit" font-size="12" dy=".8em" y="890.7000199367603" x="1017.500034108758">方法</text></g></g><g id="minder_node16"><g id="node_expander14" style="cursor: pointer;" display="none"><path id="kity_path_412" fill="white" stroke="gray" d="M935.5000314861536,766.5000159293413A6,6,0,1,1,923.5000314861536,766.5000159293413A6,6,0,1,1,935.5000314861536,766.5000159293413"></path><path id="kity_path_413" fill="none" stroke="gray"></path></g><path id="node_outline15" fill="none" stroke="none" d="M940.5000319629908,755.5000159293413h35a5,5,0,0,1,5,5v12a5,5,0,0,1,-5,5h-35a5,5,0,0,1,-5,-5v-12a5,5,0,0,1,5,-5z"></path><g id="node_text15" fill="black"><text id="kity_text_189" text-rendering="inherit" font-size="12" dy=".8em" y="758.7000160028538" x="945.5000319629908">字段</text></g></g><g id="minder_node17"><g id="node_expander15" style="cursor: pointer;" display="none"><path id="kity_path_415" fill="white" stroke="gray" d="M935.5000314861536,818.5000174790621A6,6,0,1,1,923.5000314861536,818.5000174790621A6,6,0,1,1,935.5000314861536,818.5000174790621"></path><path id="kity_path_416" fill="none" stroke="gray"></path></g><path id="node_outline16" fill="none" stroke="none" d="M940.5000319629908,807.5000174790621h35a5,5,0,0,1,5,5v12a5,5,0,0,1,-5,5h-35a5,5,0,0,1,-5,-5v-12a5,5,0,0,1,5,-5z"></path><g id="node_text16" fill="black"><text id="kity_text_191" text-rendering="inherit" font-size="12" dy=".8em" y="810.7000175525745" x="945.5000319629908">方法</text></g></g><g id="minder_node3"><g id="node_expander1" style="cursor: pointer;" display="none"><path id="kity_path_373" fill="white" stroke="gray" d="M872.5000296086073,241.50000028312206A6,6,0,1,1,860.5000296086073,241.50000028312206A6,6,0,1,1,872.5000296086073,241.50000028312206"></path><path id="kity_path_374" fill="none" stroke="gray"></path></g><path id="node_outline2" fill="none" stroke="none" d="M877.5000300854445,230.50000028312206h35a5,5,0,0,1,5,5v12a5,5,0,0,1,-5,5h-35a5,5,0,0,1,-5,-5v-12a5,5,0,0,1,5,-5z" stroke-width="3"></path><g id="node_text2" fill="black"><text id="kity_text_163" text-rendering="inherit" font-size="12" dy=".8em" y="233.70000035663446" x="882.5000300854445">字段</text></g></g><g id="minder_node4"><g id="node_expander2" style="cursor: pointer;" display="none"><path id="kity_path_376" fill="white" stroke="gray" d="M859.5000292211771,304.5000021606684A6,6,0,1,1,847.5000292211771,304.5000021606684A6,6,0,1,1,859.5000292211771,304.5000021606684"></path><path id="kity_path_377" fill="none" stroke="gray"></path></g><path id="node_outline3" fill="none" stroke="none" d="M864.5000296980143,293.5000021606684h35a5,5,0,0,1,5,5v12a5,5,0,0,1,-5,5h-35a5,5,0,0,1,-5,-5v-12a5,5,0,0,1,5,-5z" stroke-width="3"></path><g id="node_text3" fill="black"><text id="kity_text_165" text-rendering="inherit" font-size="12" dy=".8em" y="296.7000022341808" x="869.5000296980143">方法</text></g></g><g id="minder_node5"><g id="node_expander3" style="cursor: pointer;" display="none"><path id="kity_path_379" fill="white" stroke="gray" d="M880.5000298470259,361.50000385940075A6,6,0,1,1,868.5000298470259,361.50000385940075A6,6,0,1,1,880.5000298470259,361.50000385940075"></path><path id="kity_path_380" fill="none" stroke="gray"></path></g><path id="node_outline4" fill="none" stroke="none" d="M885.500030323863,350.50000385940075h103a5,5,0,0,1,5,5v12a5,5,0,0,1,-5,5h-103a5,5,0,0,1,-5,-5v-12a5,5,0,0,1,5,-5z" stroke-width="3"></path><g id="node_text4" fill="black"><text id="kity_text_167" text-rendering="inherit" font-size="12" dy=".8em" y="353.70000393291315" x="890.500030323863">流程[详见流程图]</text></g></g><g id="minder_node7"><g id="node_expander5" style="cursor: pointer;" display="none"><path id="kity_path_385" fill="white" stroke="gray" d="M144.5000079125166,901.5000199526548A6,6,0,1,1,132.5000079125166,901.5000199526548A6,6,0,1,1,144.5000079125166,901.5000199526548"></path><path id="kity_path_386" fill="none" stroke="gray"></path></g><path id="node_outline6" fill="none" stroke="none" d="M25.500004693865776,890.5000199526548h102a5,5,0,0,1,5,5v12a5,5,0,0,1,-5,5h-102a5,5,0,0,1,-5,-5v-12a5,5,0,0,1,5,-5z"></path><g id="node_text6" fill="black"><text id="kity_text_171" text-rendering="inherit" font-size="12" dy=".8em" y="893.7000200261673" x="30.500004693865776">字段[即通知模板]</text></g></g><g id="minder_node75" opacity="1"><g id="node_expander74" style="cursor: pointer;" display="none"><path id="kity_path_690" fill="white" stroke="gray" d="M883.5000299364328,1496.5000376850367A6,6,0,1,1,871.5000299364328,1496.5000376850367A6,6,0,1,1,883.5000299364328,1496.5000376850367"></path><path id="kity_path_691" fill="none" stroke="gray"></path></g><path id="node_outline75" fill="rgb(238, 243, 246)" stroke="rgb(115, 161, 191)" d="M719.5000257343054,1483.5000376850367h148a3,3,0,0,1,3,3v20a3,3,0,0,1,-3,3h-148a3,3,0,0,1,-3,-3v-20a3,3,0,0,1,3,-3z" stroke-width="1"></path><g id="node_text75" fill="black"><text id="kity_text_687" text-rendering="inherit" font-size="14" dy=".8em" y="1487.4000377178193" x="736.5000257343054">公司单点登录集成</text></g></g><g id="minder_node32"><g id="node_expander30" style="cursor: pointer;" display="none"><path id="kity_path_460" fill="white" stroke="gray" d="M148.50000803172588,765.500015899539A6,6,0,1,1,136.50000803172588,765.500015899539A6,6,0,1,1,148.50000803172588,765.500015899539"></path><path id="kity_path_461" fill="none" stroke="gray"></path></g><path id="node_outline31" fill="none" stroke="none" d="M96.50000680983067,754.500015899539h35a5,5,0,0,1,5,5v12a5,5,0,0,1,-5,5h-35a5,5,0,0,1,-5,-5v-12a5,5,0,0,1,5,-5z"></path><g id="node_text31" fill="black"><text id="kity_text_221" text-rendering="inherit" font-size="12" dy=".8em" y="757.7000159730514" x="101.50000680983067">字段</text></g></g><g id="minder_node33"><g id="node_expander31" style="cursor: pointer;" display="none"><path id="kity_path_463" fill="white" stroke="gray" d="M148.50000803172588,817.5000174492598A6,6,0,1,1,136.50000803172588,817.5000174492598A6,6,0,1,1,148.50000803172588,817.5000174492598"></path><path id="kity_path_464" fill="none" stroke="gray"></path></g><path id="node_outline32" fill="none" stroke="none" d="M96.50000680983067,806.5000174492598h35a5,5,0,0,1,5,5v12a5,5,0,0,1,-5,5h-35a5,5,0,0,1,-5,-5v-12a5,5,0,0,1,5,-5z"></path><g id="node_text32" fill="black"><text id="kity_text_223" text-rendering="inherit" font-size="12" dy=".8em" y="809.7000175227722" x="101.50000680983067">方法</text></g></g><g id="kity_g_12" display="none"><path id="kity_path_13" fill="none" stroke="rgb(66, 94, 112)" d="M287.50001905858517,441.5000349730253h35a5,5,0,0,1,5,5v12a5,5,0,0,1,-5,5h-35a5,5,0,0,1,-5,-5v-12a5,5,0,0,1,5,-5z" stroke-width="5"></path></g><g id="minder_node20"><g id="node_expander17" style="cursor: pointer;" display="none"><path id="kity_path_421" fill="white" stroke="gray" d="M324.5000132769346,31.49999402463436A6,6,0,1,1,312.5000132769346,31.49999402463436A6,6,0,1,1,324.5000132769346,31.49999402463436"></path><path id="kity_path_422" fill="none" stroke="gray"></path></g><path id="node_outline18" fill="none" stroke="none" d="M272.5000120550394,20.49999402463436h35a5,5,0,0,1,5,5v12a5,5,0,0,1,-5,5h-35a5,5,0,0,1,-5,-5v-12a5,5,0,0,1,5,-5z" stroke-width="3"></path><g id="node_text18" fill="black"><text id="kity_text_195" text-rendering="inherit" font-size="12" dy=".8em" y="23.69999409814676" x="277.5000120550394">字段</text></g></g><g id="minder_node21"><g id="node_expander18" style="cursor: pointer;" display="none"><path id="kity_path_424" fill="white" stroke="gray" d="M324.5000132769346,83.49999557435513A6,6,0,1,1,312.5000132769346,83.49999557435513A6,6,0,1,1,324.5000132769346,83.49999557435513"></path><path id="kity_path_425" fill="none" stroke="gray"></path></g><path id="node_outline19" fill="none" stroke="none" d="M272.5000120550394,72.49999557435513h35a5,5,0,0,1,5,5v12a5,5,0,0,1,-5,5h-35a5,5,0,0,1,-5,-5v-12a5,5,0,0,1,5,-5z" stroke-width="3"></path><g id="node_text19" fill="black"><text id="kity_text_197" text-rendering="inherit" font-size="12" dy=".8em" y="75.69999564786752" x="277.5000120550394">方法</text></g></g><g id="minder_node19"><g id="node_expander19" style="cursor: pointer;"><path id="kity_path_427" fill="white" stroke="gray" d="M433.50001652538776,57.49999479949474A6,6,0,1,1,421.50001652538776,57.49999479949474A6,6,0,1,1,433.50001652538776,57.49999479949474"></path><path id="kity_path_428" fill="none" stroke="gray" d="M423.00001652538776,57.49999479949474L432.00001652538776,57.49999479949474"></path></g><path id="node_outline20" fill="none" stroke="none" d="M357.5000145882368,46.49999479949474h59a5,5,0,0,1,5,5v12a5,5,0,0,1,-5,5h-59a5,5,0,0,1,-5,-5v-12a5,5,0,0,1,5,-5z" stroke-width="3"></path><g id="node_text20" fill="black"><text id="kity_text_199" text-rendering="inherit" font-size="12" dy=".8em" y="49.69999487300714" x="362.5000145882368">抽取条件</text></g></g><g id="minder_node22"><g id="node_expander20" style="cursor: pointer;" display="none"><path id="kity_path_430" fill="white" stroke="gray" d="M433.50001652538776,135.4999971240759A6,6,0,1,1,421.50001652538776,135.4999971240759A6,6,0,1,1,433.50001652538776,135.4999971240759"></path><path id="kity_path_431" fill="none" stroke="gray"></path></g><path id="node_outline21" fill="none" stroke="none" d="M381.50001530349255,124.49999712407589h35a5,5,0,0,1,5,5v12a5,5,0,0,1,-5,5h-35a5,5,0,0,1,-5,-5v-12a5,5,0,0,1,5,-5z" stroke-width="3"></path><g id="node_text21" fill="black"><text id="kity_text_201" text-rendering="inherit" font-size="12" dy=".8em" y="127.69999719758829" x="386.50001530349255">字段</text></g></g><g id="minder_node23"><g id="node_expander21" style="cursor: pointer;" display="none"><path id="kity_path_433" fill="white" stroke="gray" d="M433.50001652538776,187.49999867379665A6,6,0,1,1,421.50001652538776,187.49999867379665A6,6,0,1,1,433.50001652538776,187.49999867379665"></path><path id="kity_path_434" fill="none" stroke="gray"></path></g><path id="node_outline22" fill="none" stroke="none" d="M381.50001530349255,176.49999867379665h35a5,5,0,0,1,5,5v12a5,5,0,0,1,-5,5h-35a5,5,0,0,1,-5,-5v-12a5,5,0,0,1,5,-5z" stroke-width="3"></path><g id="node_text22" fill="black"><text id="kity_text_203" text-rendering="inherit" font-size="12" dy=".8em" y="179.69999874730905" x="386.50001530349255">方法</text></g></g><g id="minder_node24"><g id="node_expander22" style="cursor: pointer;" display="none"><path id="kity_path_436" fill="white" stroke="gray" d="M433.50001652538776,239.50000022351742A6,6,0,1,1,421.50001652538776,239.50000022351742A6,6,0,1,1,433.50001652538776,239.50000022351742"></path><path id="kity_path_437" fill="none" stroke="gray"></path></g><path id="node_outline23" fill="none" stroke="none" d="M313.5000132769346,228.50000022351742h103a5,5,0,0,1,5,5v12a5,5,0,0,1,-5,5h-103a5,5,0,0,1,-5,-5v-12a5,5,0,0,1,5,-5z" stroke-width="3"></path><g id="node_text23" fill="black"><text id="kity_text_205" text-rendering="inherit" font-size="12" dy=".8em" y="231.70000029702982" x="318.5000132769346">流程[详见流程图]</text></g></g><g id="minder_node26"><g id="node_expander23" style="cursor: pointer;" display="none"><path id="kity_path_439" fill="white" stroke="gray" d="M324.5000132769346,291.5000017732382A6,6,0,1,1,312.5000132769346,291.5000017732382A6,6,0,1,1,324.5000132769346,291.5000017732382"></path><path id="kity_path_440" fill="none" stroke="gray"></path></g><path id="node_outline24" fill="none" stroke="none" d="M272.5000120550394,280.5000017732382h35a5,5,0,0,1,5,5v12a5,5,0,0,1,-5,5h-35a5,5,0,0,1,-5,-5v-12a5,5,0,0,1,5,-5z" stroke-width="3"></path><g id="node_text24" fill="black"><text id="kity_text_207" text-rendering="inherit" font-size="12" dy=".8em" y="283.7000018467506" x="277.5000120550394">字段</text></g></g><g id="minder_node27"><g id="node_expander24" style="cursor: pointer;" display="none"><path id="kity_path_442" fill="white" stroke="gray" d="M324.5000132769346,343.50000332295895A6,6,0,1,1,312.5000132769346,343.50000332295895A6,6,0,1,1,324.5000132769346,343.50000332295895"></path><path id="kity_path_443" fill="none" stroke="gray"></path></g><path id="node_outline25" fill="none" stroke="none" d="M272.5000120550394,332.50000332295895h35a5,5,0,0,1,5,5v12a5,5,0,0,1,-5,5h-35a5,5,0,0,1,-5,-5v-12a5,5,0,0,1,5,-5z" stroke-width="3"></path><g id="node_text25" fill="black"><text id="kity_text_209" text-rendering="inherit" font-size="12" dy=".8em" y="335.70000339647135" x="277.5000120550394">方法</text></g></g><g id="minder_node25"><g id="node_expander25" style="cursor: pointer;"><path id="kity_path_445" fill="white" stroke="gray" d="M433.50001652538776,317.50000254809856A6,6,0,1,1,421.50001652538776,317.50000254809856A6,6,0,1,1,433.50001652538776,317.50000254809856"></path><path id="kity_path_446" fill="none" stroke="gray" d="M423.00001652538776,317.50000254809856L432.00001652538776,317.50000254809856"></path></g><path id="node_outline26" fill="none" stroke="none" d="M357.5000145882368,306.50000254809856h59a5,5,0,0,1,5,5v12a5,5,0,0,1,-5,5h-59a5,5,0,0,1,-5,-5v-12a5,5,0,0,1,5,-5z" stroke-width="3"></path><g id="node_text26" fill="black"><text id="kity_text_211" text-rendering="inherit" font-size="12" dy=".8em" y="309.70000262161096" x="362.5000145882368">抽取结果</text></g></g><g id="minder_node29"><g id="node_expander27" style="cursor: pointer;" display="none"><path id="kity_path_451" fill="white" stroke="gray" d="M245.50001092255116,578.5000103265047A6,6,0,1,1,233.50001092255116,578.5000103265047A6,6,0,1,1,245.50001092255116,578.5000103265047"></path><path id="kity_path_452" fill="none" stroke="gray"></path></g><path id="node_outline28" fill="none" stroke="none" d="M193.50000970065594,567.5000103265047h35a5,5,0,0,1,5,5v12a5,5,0,0,1,-5,5h-35a5,5,0,0,1,-5,-5v-12a5,5,0,0,1,5,-5z" stroke-width="3"></path><g id="node_text28" fill="black"><text id="kity_text_215" text-rendering="inherit" font-size="12" dy=".8em" y="570.7000104000172" x="198.50000970065594">字段</text></g></g><g id="minder_node30"><g id="node_expander28" style="cursor: pointer;" display="none"><path id="kity_path_454" fill="white" stroke="gray" d="M245.50001092255116,630.5000118762255A6,6,0,1,1,233.50001092255116,630.5000118762255A6,6,0,1,1,245.50001092255116,630.5000118762255"></path><path id="kity_path_455" fill="none" stroke="gray"></path></g><path id="node_outline29" fill="none" stroke="none" d="M193.50000970065594,619.5000118762255h35a5,5,0,0,1,5,5v12a5,5,0,0,1,-5,5h-35a5,5,0,0,1,-5,-5v-12a5,5,0,0,1,5,-5z" stroke-width="3"></path><g id="node_text29" fill="black"><text id="kity_text_217" text-rendering="inherit" font-size="12" dy=".8em" y="622.7000119497379" x="198.50000970065594">方法</text></g></g><g id="minder_node48"><g id="node_expander46" style="cursor: pointer;" display="none"><path id="kity_path_508" fill="white" stroke="gray" d="M136.50000767409801,682.5000134259462A6,6,0,1,1,124.50000767409801,682.5000134259462A6,6,0,1,1,136.50000767409801,682.5000134259462"></path><path id="kity_path_509" fill="none" stroke="gray"></path></g><path id="node_outline47" fill="none" stroke="none" d="M84.5000064522028,671.5000134259462h35a5,5,0,0,1,5,5v12a5,5,0,0,1,-5,5h-35a5,5,0,0,1,-5,-5v-12a5,5,0,0,1,5,-5z" stroke-width="3"></path><g id="node_text47" fill="black"><text id="kity_text_253" text-rendering="inherit" font-size="12" dy=".8em" y="674.7000134994587" x="89.5000064522028">字段</text></g></g><g id="minder_node49"><g id="node_expander47" style="cursor: pointer;" display="none"><path id="kity_path_511" fill="white" stroke="gray" d="M136.50000767409801,734.500014975667A6,6,0,1,1,124.50000767409801,734.500014975667A6,6,0,1,1,136.50000767409801,734.500014975667"></path><path id="kity_path_512" fill="none" stroke="gray"></path></g><path id="node_outline48" fill="none" stroke="none" d="M84.5000064522028,723.500014975667h35a5,5,0,0,1,5,5v12a5,5,0,0,1,-5,5h-35a5,5,0,0,1,-5,-5v-12a5,5,0,0,1,5,-5z" stroke-width="3"></path><g id="node_text48" fill="black"><text id="kity_text_255" text-rendering="inherit" font-size="12" dy=".8em" y="726.7000150491795" x="89.5000064522028">方法</text></g></g><g id="minder_node47" opacity="1"><g id="node_expander48" style="cursor: pointer;"><path id="kity_path_514" fill="white" stroke="gray" d="M245.50001092255116,708.5000142008066A6,6,0,1,1,233.50001092255116,708.5000142008066A6,6,0,1,1,245.50001092255116,708.5000142008066"></path><path id="kity_path_515" fill="none" stroke="gray" d="M235.00001092255116,708.5000142008066L244.00001092255116,708.5000142008066"></path></g><path id="node_outline49" fill="none" stroke="none" d="M169.5000089854002,697.5000142008066h59a5,5,0,0,1,5,5v12a5,5,0,0,1,-5,5h-59a5,5,0,0,1,-5,-5v-12a5,5,0,0,1,5,-5z" stroke-width="3"></path><g id="node_text49" fill="black"><text id="kity_text_257" text-rendering="inherit" font-size="12" dy=".8em" y="700.7000142743191" x="174.5000089854002">专家评价</text></g></g><g id="minder_node44"><g id="node_expander42" style="cursor: pointer;" display="none"><path id="kity_path_496" fill="white" stroke="gray" d="M313.5000129491091,443.5000063031912A6,6,0,1,1,301.5000129491091,443.5000063031912A6,6,0,1,1,313.5000129491091,443.5000063031912"></path><path id="kity_path_497" fill="none" stroke="gray"></path></g><path id="node_outline43" fill="none" stroke="none" d="M261.50001172721386,432.5000063031912h35a5,5,0,0,1,5,5v12a5,5,0,0,1,-5,5h-35a5,5,0,0,1,-5,-5v-12a5,5,0,0,1,5,-5z"></path><g id="node_text43" fill="black"><text id="kity_text_245" text-rendering="inherit" font-size="12" dy=".8em" y="435.7000063767036" x="266.50001172721386">字段</text></g></g><g id="minder_node45"><g id="node_expander43" style="cursor: pointer;" display="none"><path id="kity_path_499" fill="white" stroke="gray" d="M313.5000129491091,495.50000785291195A6,6,0,1,1,301.5000129491091,495.50000785291195A6,6,0,1,1,313.5000129491091,495.50000785291195"></path><path id="kity_path_500" fill="none" stroke="gray"></path></g><path id="node_outline44" fill="none" stroke="none" d="M261.50001172721386,484.50000785291195h35a5,5,0,0,1,5,5v12a5,5,0,0,1,-5,5h-35a5,5,0,0,1,-5,-5v-12a5,5,0,0,1,5,-5z"></path><g id="node_text44" fill="black"><text id="kity_text_247" text-rendering="inherit" font-size="12" dy=".8em" y="487.70000792642435" x="266.50001172721386">方法</text></g></g><g id="minder_node46"><g id="node_expander44" style="cursor: pointer;" display="none"><path id="kity_path_502" fill="white" stroke="gray" d="M313.5000129491091,547.5000094026327A6,6,0,1,1,301.5000129491091,547.5000094026327A6,6,0,1,1,313.5000129491091,547.5000094026327"></path><path id="kity_path_503" fill="none" stroke="gray"></path></g><path id="node_outline45" fill="none" stroke="none" d="M208.50001014769077,536.5000094026327h88a5,5,0,0,1,5,5v12a5,5,0,0,1,-5,5h-88a5,5,0,0,1,-5,-5v-12a5,5,0,0,1,5,-5z"></path><g id="node_text45" fill="black"><text id="kity_text_249" text-rendering="inherit" font-size="12" dy=".8em" y="539.7000094761452" x="213.50001014769077">规则/逻辑说明</text></g></g><g id="minder_node71"><g id="node_expander70" style="cursor: pointer;" display="none"><path id="kity_path_604" fill="white" stroke="gray" d="M888.5000300854445,1746.5000451356173A6,6,0,1,1,876.5000300854445,1746.5000451356173A6,6,0,1,1,888.5000300854445,1746.5000451356173"></path><path id="kity_path_605" fill="none" stroke="gray"></path></g><path id="node_outline71" fill="none" stroke="none" d="M893.5000305622816,1735.5000451356173h108a5,5,0,0,1,5,5v12a5,5,0,0,1,-5,5h-108a5,5,0,0,1,-5,-5v-12a5,5,0,0,1,5,-5z" stroke-width="3"></path><g id="node_text71" fill="black"><text id="kity_text_601" text-rendering="inherit" font-size="12" dy=".8em" y="1738.7000452091297" x="898.5000305622816">集成财务支付系统</text></g></g><g id="minder_node73"><g id="node_expander72" style="cursor: pointer;" display="none"><path id="kity_path_620" fill="white" stroke="gray" d="M974.5000326484442,1798.500046685338A6,6,0,1,1,962.5000326484442,1798.500046685338A6,6,0,1,1,974.5000326484442,1798.500046685338"></path><path id="kity_path_621" fill="none" stroke="gray"></path></g><path id="node_outline73" fill="none" stroke="none" d="M979.5000331252813,1787.500046685338h36a5,5,0,0,1,5,5v12a5,5,0,0,1,-5,5h-36a5,5,0,0,1,-5,-5v-12a5,5,0,0,1,5,-5z" stroke-width="3"></path><g id="node_text73" fill="black"><text id="kity_text_617" text-rendering="inherit" font-size="12" dy=".8em" y="1790.7000467588505" x="984.5000331252813">字段</text></g></g><g id="minder_node74"><g id="node_expander73" style="cursor: pointer;" display="none"><path id="kity_path_628" fill="white" stroke="gray" d="M974.5000326484442,1850.5000482350588A6,6,0,1,1,962.5000326484442,1850.5000482350588A6,6,0,1,1,974.5000326484442,1850.5000482350588"></path><path id="kity_path_629" fill="none" stroke="gray"></path></g><path id="node_outline74" fill="none" stroke="none" d="M979.5000331252813,1839.5000482350588h36a5,5,0,0,1,5,5v12a5,5,0,0,1,-5,5h-36a5,5,0,0,1,-5,-5v-12a5,5,0,0,1,5,-5z" stroke-width="3"></path><g id="node_text74" fill="black"><text id="kity_text_625" text-rendering="inherit" font-size="12" dy=".8em" y="1842.7000483085712" x="984.5000331252813">方法</text></g></g><g id="minder_node72"><g id="node_expander71" style="cursor: pointer;"><path id="kity_path_612" fill="white" stroke="gray" d="M888.5000300854445,1824.5000474601984A6,6,0,1,1,876.5000300854445,1824.5000474601984A6,6,0,1,1,888.5000300854445,1824.5000474601984"></path><path id="kity_path_613" fill="none" stroke="gray" d="M878.0000300854445,1824.5000474601984L887.0000300854445,1824.5000474601984"></path></g><path id="node_outline72" fill="none" stroke="none" d="M893.5000305622816,1813.5000474601984h36a5,5,0,0,1,5,5v12a5,5,0,0,1,-5,5h-36a5,5,0,0,1,-5,-5v-12a5,5,0,0,1,5,-5z" stroke-width="3"></path><g id="node_text72" fill="black"><text id="kity_text_609" text-rendering="inherit" font-size="12" dy=".8em" y="1816.7000475337109" x="898.5000305622816">凭证</text></g></g><g id="minder_node70"><g id="node_expander69" style="cursor: pointer;" display="none"><path id="kity_path_596" fill="white" stroke="gray" d="M905.5000305920839,1572.5000399500132A6,6,0,1,1,893.5000305920839,1572.5000399500132A6,6,0,1,1,905.5000305920839,1572.5000399500132"></path><path id="kity_path_597" fill="none" stroke="gray"></path></g><path id="node_outline70" fill="none" stroke="none" d="M910.5000310689211,1561.5000399500132h35a5,5,0,0,1,5,5v12a5,5,0,0,1,-5,5h-35a5,5,0,0,1,-5,-5v-12a5,5,0,0,1,5,-5z" stroke-width="3"></path><g id="node_text70" fill="black"><text id="kity_text_593" text-rendering="inherit" font-size="12" dy=".8em" y="1564.7000400235256" x="915.5000310689211">接口</text></g></g><g id="minder_node35"><g id="node_expander33" style="cursor: pointer;" display="none"><path id="kity_path_469" fill="white" stroke="gray" d="M180.5000089854002,1479.5000371783972A6,6,0,1,1,168.5000089854002,1479.5000371783972A6,6,0,1,1,180.5000089854002,1479.5000371783972"></path><path id="kity_path_470" fill="none" stroke="gray"></path></g><path id="node_outline34" fill="none" stroke="none" d="M128.50000776350498,1468.5000371783972h35a5,5,0,0,1,5,5v12a5,5,0,0,1,-5,5h-35a5,5,0,0,1,-5,-5v-12a5,5,0,0,1,5,-5z" stroke-width="3"></path><g id="node_text34" fill="black"><text id="kity_text_227" text-rendering="inherit" font-size="12" dy=".8em" y="1471.7000372519096" x="133.50000776350498">字段</text></g></g><g id="minder_node36"><g id="node_expander34" style="cursor: pointer;" display="none"><path id="kity_path_472" fill="white" stroke="gray" d="M180.5000089854002,1531.500038728118A6,6,0,1,1,168.5000089854002,1531.500038728118A6,6,0,1,1,180.5000089854002,1531.500038728118"></path><path id="kity_path_473" fill="none" stroke="gray"></path></g><path id="node_outline35" fill="none" stroke="none" d="M128.50000776350498,1520.500038728118h35a5,5,0,0,1,5,5v12a5,5,0,0,1,-5,5h-35a5,5,0,0,1,-5,-5v-12a5,5,0,0,1,5,-5z" stroke-width="3"></path><g id="node_text35" fill="black"><text id="kity_text_229" text-rendering="inherit" font-size="12" dy=".8em" y="1523.7000388016304" x="133.50000776350498">方法</text></g></g><g id="minder_node37"><g id="node_expander35" style="cursor: pointer;" display="none"><path id="kity_path_475" fill="white" stroke="gray" d="M180.5000089854002,1586.0000403523445A6,6,0,1,1,168.5000089854002,1586.0000403523445A6,6,0,1,1,180.5000089854002,1586.0000403523445"></path><path id="kity_path_476" fill="none" stroke="gray"></path></g><path id="node_outline36" fill="none" stroke="none" d="M54.500005558133125,1572.5000403374434h109a5,5,0,0,1,5,5v17a5,5,0,0,1,-5,5h-109a5,5,0,0,1,-5,-5v-17a5,5,0,0,1,5,-5z" stroke-width="3"></path><g id="node_text36" fill="black"><text id="kity_text_231" text-rendering="inherit" font-size="12" dy=".8em" y="1577.7000404109558" x="59.500005558133125">规则/逻辑说明</text></g><g id="kity_g_297" style="cursor: pointer;"><path id="kity_path_298" fill="none" stroke="none" d="M145.00000803172588,1577.0000403374434h12a2,2,0,0,1,2,2v13a2,2,0,0,1,-2,2h-12a2,2,0,0,1,-2,-2v-13a2,2,0,0,1,2,-2z"></path><path id="kity_path_299" fill="black" stroke="none" d="M154.0000081062317,1588.0000401437283H148.0000081062317V1587.0000401437283h6L154.0000081062317,1588.0000401437283L154.0000081062317,1588.0000401437283zM154.0000081062317,1586.0000401437283H148.0000081062317V1585.0000401437283h6V1586.0000401437283zM154.0000081062317,1584.0000401437283H148.0000081062317V1583.0000401437283h6V1584.0000401437283zM153.5000081062317,1590.0000401437283H147.0000081062317V1581.0000401437283h8v7.5M154.0000081062317,1591.0000401437283l2,-2V1580.0000401437283H146.0000081062317v11"></path></g></g><g id="minder_node39"><g id="node_expander37" style="cursor: pointer;" display="none"><path id="kity_path_481" fill="white" stroke="gray" d="M197.50000949203968,1615.500041231513A6,6,0,1,1,185.50000949203968,1615.500041231513A6,6,0,1,1,197.50000949203968,1615.500041231513"></path><path id="kity_path_482" fill="none" stroke="gray"></path></g><path id="node_outline38" fill="none" stroke="none" d="M145.50000827014446,1604.500041231513h35a5,5,0,0,1,5,5v12a5,5,0,0,1,-5,5h-35a5,5,0,0,1,-5,-5v-12a5,5,0,0,1,5,-5z" stroke-width="3"></path><g id="node_text38" fill="black"><text id="kity_text_235" text-rendering="inherit" font-size="12" dy=".8em" y="1607.7000413050255" x="150.50000827014446">字段</text></g></g><g id="minder_node40"><g id="node_expander38" style="cursor: pointer;" display="none"><path id="kity_path_484" fill="white" stroke="gray" d="M197.50000949203968,1667.5000427812338A6,6,0,1,1,185.50000949203968,1667.5000427812338A6,6,0,1,1,197.50000949203968,1667.5000427812338"></path><path id="kity_path_485" fill="none" stroke="gray"></path></g><path id="node_outline39" fill="none" stroke="none" d="M145.50000827014446,1656.5000427812338h35a5,5,0,0,1,5,5v12a5,5,0,0,1,-5,5h-35a5,5,0,0,1,-5,-5v-12a5,5,0,0,1,5,-5z" stroke-width="3"></path><g id="node_text39" fill="black"><text id="kity_text_237" text-rendering="inherit" font-size="12" dy=".8em" y="1659.7000428547462" x="150.50000827014446">方法</text></g></g><g id="minder_node41"><g id="node_expander39" style="cursor: pointer;" display="none"><path id="kity_path_487" fill="white" stroke="gray" d="M197.50000949203968,1722.0000444054604A6,6,0,1,1,185.50000949203968,1722.0000444054604A6,6,0,1,1,197.50000949203968,1722.0000444054604"></path><path id="kity_path_488" fill="none" stroke="gray"></path></g><path id="node_outline40" fill="none" stroke="none" d="M71.5000060647726,1708.5000443905592h109a5,5,0,0,1,5,5v17a5,5,0,0,1,-5,5h-109a5,5,0,0,1,-5,-5v-17a5,5,0,0,1,5,-5z" stroke-width="3"></path><g id="node_text40" fill="black"><text id="kity_text_239" text-rendering="inherit" font-size="12" dy=".8em" y="1713.7000444640717" x="76.5000060647726">规则/逻辑说明</text></g><g id="kity_g_300" style="cursor: pointer;"><path id="kity_path_301" fill="none" stroke="none" d="M162.00000853836536,1713.0000443905592h12a2,2,0,0,1,2,2v13a2,2,0,0,1,-2,2h-12a2,2,0,0,1,-2,-2v-13a2,2,0,0,1,2,-2z"></path><path id="kity_path_302" fill="black" stroke="none" d="M171.00000861287117,1724.000044196844H165.00000861287117V1723.000044196844h6L171.00000861287117,1724.000044196844L171.00000861287117,1724.000044196844zM171.00000861287117,1722.000044196844H165.00000861287117V1721.000044196844h6V1722.000044196844zM171.00000861287117,1720.000044196844H165.00000861287117V1719.000044196844h6V1720.000044196844zM170.50000861287117,1726.000044196844H164.00000861287117V1717.000044196844h8v7.5M171.00000861287117,1727.000044196844l2,-2V1716.000044196844H163.00000861287117v11"></path></g></g><g id="minder_node42"><g id="node_expander40" style="cursor: pointer;" display="none"><path id="kity_path_490" fill="white" stroke="gray" d="M197.50000949203968,1776.500046029687A6,6,0,1,1,185.50000949203968,1776.500046029687A6,6,0,1,1,197.50000949203968,1776.500046029687"></path><path id="kity_path_491" fill="none" stroke="gray"></path></g><path id="node_outline41" fill="none" stroke="none" d="M77.50000624358654,1765.500046029687h103a5,5,0,0,1,5,5v12a5,5,0,0,1,-5,5h-103a5,5,0,0,1,-5,-5v-12a5,5,0,0,1,5,-5z"></path><g id="node_text41" fill="black"><text id="kity_text_241" text-rendering="inherit" font-size="12" dy=".8em" y="1768.7000461031994" x="82.50000624358654">流程[详见流程图]</text></g></g></g></g></svg>